<svg width="72" height="91" viewBox="0 0 72 91" fill="none" xmlns="http://www.w3.org/2000/svg">
<path d="M35.9965 71.9946C29.3 71.9936 22.7365 70.1247 17.0439 66.598C11.3513 63.0712 6.75534 58.0265 3.77264 52.0309C0.78993 46.0354 -0.461238 39.3267 0.159786 32.659C0.78081 25.9913 3.2494 19.6291 7.28805 14.2875C11.3267 8.94587 16.7753 4.83671 23.0213 2.42192C29.2672 0.00714282 36.063 -0.617512 42.6445 0.618185C49.226 1.85388 55.3324 4.90094 60.2771 9.4168C65.2218 13.9327 68.8089 19.7383 70.635 26.181C72.1528 31.5358 72.4081 37.1697 71.3811 42.6398C70.3541 48.11 68.0726 53.2675 64.7159 57.7072C61.3592 62.1468 57.0188 65.7476 52.0356 68.2267C47.0524 70.7057 41.5623 71.9955 35.9965 71.9946ZM35.9965 3.13021C29.1166 3.13596 22.4123 5.30228 16.8299 9.32339C11.2475 13.3445 7.06898 19.0173 4.88414 25.541C2.69931 32.0648 2.61853 39.1099 4.6532 45.682C6.68787 52.2542 10.7352 58.0213 16.224 62.1693C21.7127 66.3174 28.3656 68.6369 35.2435 68.8004C42.1214 68.9639 48.877 66.9631 54.5566 63.0805C60.2363 59.198 64.5531 53.6297 66.8977 47.1617C69.2424 40.6936 69.4965 33.6526 67.6241 27.0324C65.6555 20.1585 61.5064 14.1105 55.802 9.79944C50.0976 5.48838 43.1467 3.14777 35.9965 3.13021Z" fill="white"/>
<path d="M35.9974 62.6041C30.694 62.6208 25.5077 61.0445 21.1106 58.0794C16.7135 55.1144 13.3081 50.8971 11.3356 45.9741C8.741 39.5728 8.74235 32.4124 11.3394 26.0121C13.3274 21.1002 16.737 16.8941 21.1311 13.9327C25.5252 10.9713 30.7036 9.38972 36.0025 9.39063C41.3014 9.39153 46.4792 10.9749 50.8723 13.9378C55.2654 16.9007 58.6736 21.108 60.6599 26.0205C63.2538 32.4221 63.2522 39.5823 60.6554 45.9827C58.6822 50.9038 55.277 55.1191 50.8806 58.0826C46.4842 61.0461 41.2993 62.6213 35.9974 62.6041ZM35.9974 12.5209C31.3182 12.506 26.7423 13.8966 22.8627 16.5126C18.983 19.1286 15.9784 22.8494 14.2381 27.1929C11.9498 32.8363 11.9484 39.1489 14.2342 44.7933C15.9856 49.1295 18.9925 52.8437 22.8692 55.4593C26.7459 58.075 31.3156 59.473 35.9922 59.4739C40.6688 59.4748 45.239 58.0786 49.1167 55.4644C52.9944 52.8503 56.0027 49.1373 57.7559 44.8017C60.0449 39.1585 60.0466 32.8457 57.7606 27.2012C56.0208 22.8559 53.016 19.1332 49.1356 16.5157C45.2552 13.8981 40.6781 12.5064 35.9974 12.5209Z" fill="white"/>
<path d="M65.7359 90.7758C65.0474 90.7765 64.3672 90.6255 63.7435 90.3338C63.1199 90.0421 62.5681 89.6166 62.1273 89.0877L55.0629 80.6104C43.2854 85.6429 29.9964 85.8179 18.0905 81.0971L11.4327 89.0855C10.6166 90.0125 9.47628 90.5916 8.24631 90.7036C7.01634 90.8156 5.79019 90.4521 4.82002 89.6878C3.86482 88.8895 3.26511 87.7451 3.15237 86.5054C3.03962 85.2656 3.42303 84.0318 4.21855 83.0743L9.55883 76.6657C7.89164 75.5817 6.29269 74.3962 4.77103 73.1159C3.82462 72.3084 3.23776 71.158 3.13953 69.9178C3.04131 68.6776 3.43977 67.4492 4.24727 66.5028C5.05476 65.5564 6.20515 64.9695 7.44534 64.8713C8.68554 64.7731 9.91396 65.1715 10.8604 65.979C17.9045 71.886 26.804 75.1236 35.9971 75.1236C45.1902 75.1236 54.0896 71.886 61.1338 65.979C61.8195 65.3931 62.66 65.0177 63.554 64.898C64.448 64.7783 65.3576 64.9194 66.1734 65.3043C66.8822 65.6385 67.4961 66.145 67.959 66.7774C68.4219 67.4098 68.719 68.1481 68.8233 68.9248C68.9275 69.7016 68.8356 70.4921 68.5559 71.2242C68.2762 71.9563 67.8176 72.6067 67.222 73.116C66.0283 74.1232 64.7612 75.0881 63.4423 75.9941L69.3427 83.0737C69.9143 83.7592 70.2787 84.5935 70.3931 85.4787C70.5075 86.3639 70.3672 87.2634 69.9887 88.0718C69.6102 88.8801 69.0091 89.5638 68.2559 90.0427C67.5026 90.5216 66.6285 90.776 65.7359 90.7758ZM55.5093 77.1355C55.7388 77.1355 55.9656 77.1859 56.1735 77.2833C56.3813 77.3807 56.5653 77.5226 56.7122 77.699L64.5314 87.0827C64.6786 87.2594 64.8629 87.4014 65.0712 87.4988C65.2794 87.5962 65.5066 87.6465 65.7366 87.6461C66.1029 87.6477 66.4579 87.519 66.7382 87.2832C67.0563 87.017 67.2559 86.6356 67.2935 86.2225C67.331 85.8095 67.2034 85.3984 66.9386 85.0792L59.9172 76.6555C59.7748 76.4846 59.6704 76.2853 59.6111 76.0708C59.5518 75.8564 59.539 75.6318 59.5734 75.412C59.6078 75.1922 59.6888 74.9822 59.8108 74.7962C59.9328 74.6101 60.0931 74.4522 60.2809 74.3331C62.0011 73.2411 63.6463 72.0353 65.2055 70.7238C65.3747 70.577 65.5097 70.3949 65.6011 70.1904C65.6924 69.9859 65.7379 69.7639 65.7344 69.5399C65.7413 69.2458 65.6612 68.9562 65.504 68.7075C65.3468 68.4588 65.1195 68.2622 64.8509 68.1423C64.5751 68.0111 64.267 67.9634 63.9645 68.0051C63.662 68.0468 63.3783 68.1761 63.1483 68.3771C55.5401 74.7579 45.9276 78.2552 35.9978 78.2552C26.0681 78.2552 16.4556 74.7579 8.84733 68.3771C8.61703 68.1762 8.33307 68.047 8.03034 68.0053C7.72761 67.9636 7.41929 68.0112 7.14325 68.1423C6.87481 68.2624 6.64782 68.4591 6.49078 68.7078C6.33374 68.9564 6.25364 69.2459 6.26054 69.5399C6.25698 69.7636 6.30233 69.9854 6.39341 70.1898C6.48448 70.3941 6.61909 70.5761 6.78782 70.723C8.64825 72.2867 10.6302 73.6997 12.715 74.9488C12.9086 75.065 13.0748 75.2218 13.2021 75.4084C13.3294 75.5949 13.4149 75.8068 13.4525 76.0295C13.4902 76.2522 13.4793 76.4804 13.4204 76.6984C13.3616 76.9164 13.2562 77.1192 13.1116 77.2927L6.6227 85.0789C6.35778 85.3982 6.23021 85.8096 6.2679 86.2228C6.30559 86.636 6.50549 87.0175 6.82382 87.2836C7.10395 87.5188 7.45834 87.647 7.82407 87.6456C8.054 87.646 8.28119 87.5957 8.48948 87.4983C8.69777 87.401 8.88204 87.2589 9.0292 87.0822L16.4229 78.2098C16.6379 77.9509 16.9308 77.7684 17.2579 77.6894C17.5851 77.6105 17.929 77.6393 18.2384 77.7716C24.0418 80.2366 30.2951 81.4658 36.5998 81.3806C42.9045 81.2955 49.1223 79.898 54.8571 77.2772C55.0619 77.184 55.2843 77.1357 55.5093 77.1355Z" fill="white"/>
<path d="M35.9973 56.3437C34.7592 56.3437 33.5488 55.9765 32.5193 55.2886C31.4897 54.6007 30.6873 53.623 30.2135 52.479C29.7397 51.3351 29.6157 50.0763 29.8572 48.8619C30.0988 47.6475 30.695 46.532 31.5706 45.6565C32.4461 44.781 33.5616 44.1847 34.776 43.9432C35.9904 43.7016 37.2492 43.8256 38.3931 44.2994C39.537 44.7733 40.5148 45.5757 41.2027 46.6052C41.8906 47.6347 42.2577 48.8451 42.2577 50.0833C42.2559 51.7431 41.5957 53.3343 40.4221 54.508C39.2484 55.6816 37.6571 56.3418 35.9973 56.3437ZM35.9973 46.9531C35.3782 46.9531 34.7731 47.1367 34.2583 47.4806C33.7435 47.8246 33.3423 48.3134 33.1054 48.8854C32.8685 49.4574 32.8065 50.0868 32.9273 50.694C33.0481 51.3012 33.3462 51.8589 33.784 52.2967C34.2217 52.7344 34.7795 53.0326 35.3867 53.1533C35.9939 53.2741 36.6232 53.2121 37.1952 52.9752C37.7672 52.7383 38.2561 52.3371 38.6 51.8223C38.944 51.3076 39.1275 50.7024 39.1275 50.0833C39.1267 49.2534 38.7967 48.4577 38.2098 47.8708C37.623 47.284 36.8273 46.9539 35.9973 46.9531Z" fill="white"/>
<path d="M42.2577 61.0389C41.8426 61.0389 41.4445 60.874 41.151 60.5805C40.8575 60.287 40.6926 59.8889 40.6926 59.4738V12.5208C40.6926 12.1057 40.8575 11.7076 41.151 11.4141C41.4445 11.1206 41.8426 10.9557 42.2577 10.9557C42.6728 10.9557 43.0709 11.1206 43.3644 11.4141C43.6579 11.7076 43.8228 12.1057 43.8228 12.5208V59.4738C43.8228 59.8889 43.6579 60.287 43.3644 60.5805C43.0709 60.874 42.6728 61.0389 42.2577 61.0389Z" fill="white"/>
<path d="M54.7785 53.2135C54.3634 53.2135 53.9653 53.0486 53.6718 52.7551C53.3783 52.4615 53.2134 52.0635 53.2134 51.6484V20.3464C53.2134 19.9313 53.3783 19.5332 53.6718 19.2397C53.9653 18.9461 54.3634 18.7812 54.7785 18.7812C55.1936 18.7812 55.5917 18.9461 55.8852 19.2397C56.1787 19.5332 56.3436 19.9313 56.3436 20.3464V51.6484C56.3436 52.0635 56.1787 52.4615 55.8852 52.7551C55.5917 53.0486 55.1936 53.2135 54.7785 53.2135Z" fill="white"/>
<path d="M29.7369 61.0389C29.3218 61.0389 28.9237 60.874 28.6302 60.5805C28.3366 60.287 28.1718 59.8889 28.1718 59.4738V12.5208C28.1718 12.1057 28.3366 11.7076 28.6302 11.4141C28.9237 11.1206 29.3218 10.9557 29.7369 10.9557C30.1519 10.9557 30.55 11.1206 30.8435 11.4141C31.1371 11.7076 31.302 12.1057 31.302 12.5208V59.4738C31.302 59.8889 31.1371 60.287 30.8435 60.5805C30.55 60.874 30.1519 61.0389 29.7369 61.0389Z" fill="white"/>
<path d="M17.2161 53.2135C16.801 53.2135 16.4029 53.0486 16.1094 52.7551C15.8159 52.4615 15.651 52.0635 15.651 51.6484V20.3464C15.651 19.9313 15.8159 19.5332 16.1094 19.2397C16.4029 18.9461 16.801 18.7812 17.2161 18.7812C17.6312 18.7812 18.0293 18.9461 18.3228 19.2397C18.6163 19.5332 18.7812 19.9313 18.7812 20.3464V51.6484C18.7812 52.0635 18.6163 52.4615 18.3228 52.7551C18.0293 53.0486 17.6312 53.2135 17.2161 53.2135Z" fill="white"/>
<path d="M12.787 46.953H2.86429C2.52343 46.9529 2.19192 46.8416 1.92007 46.636C1.64823 46.4303 1.4509 46.1416 1.35804 45.8136C-0.45268 39.3947 -0.45268 32.6 1.35804 26.181C1.4509 25.8531 1.64823 25.5643 1.92007 25.3587C2.19192 25.1531 2.52343 25.0417 2.86429 25.0416H12.787C13.044 25.0417 13.297 25.105 13.5237 25.226C13.7504 25.347 13.9438 25.522 14.0869 25.7354C14.2299 25.9489 14.3182 26.1943 14.344 26.45C14.3697 26.7057 14.3321 26.9638 14.2344 27.2015C11.9501 32.8429 11.9501 39.1518 14.2344 44.7932C14.3321 45.0309 14.3697 45.289 14.344 45.5447C14.3182 45.8003 14.2299 46.0458 14.0869 46.2592C13.9438 46.4727 13.7504 46.6477 13.5237 46.7687C13.297 46.8897 13.044 46.953 12.787 46.953ZM4.07051 43.8228H10.5624C9.00042 38.7227 9.00042 33.2719 10.5624 28.1718H4.07036C2.81702 33.3136 2.81702 38.6811 4.07036 43.8228H4.07051Z" fill="white"/>
<path d="M69.1308 46.953H59.2081C58.951 46.9532 58.6979 46.89 58.4711 46.7691C58.2442 46.6482 58.0507 46.4732 57.9076 46.2596C57.7645 46.0461 57.6762 45.8006 57.6506 45.5448C57.625 45.289 57.6628 45.0309 57.7607 44.7932C60.045 39.1518 60.045 32.8429 57.7607 27.2015C57.6628 26.9638 57.625 26.7056 57.6506 26.4499C57.6762 26.1941 57.7645 25.9486 57.9076 25.735C58.0507 25.5215 58.2442 25.3465 58.4711 25.2256C58.6979 25.1046 58.951 25.0414 59.2081 25.0416H69.1308C69.4716 25.0416 69.8032 25.1528 70.0749 25.3585C70.3467 25.5642 70.5438 25.853 70.6363 26.181C72.4481 32.5998 72.4481 39.3948 70.6363 45.8136C70.5438 46.1417 70.3467 46.4305 70.0749 46.6362C69.8032 46.8418 69.4716 46.9531 69.1308 46.953ZM61.4321 43.8228H67.9248C69.1781 38.6811 69.1781 33.3136 67.9248 28.1718H61.4321C62.9951 33.2718 62.9951 38.7229 61.4321 43.8228Z" fill="white"/>
<path d="M10.9557 37.5625H1.5651C1.15001 37.5625 0.751921 37.3976 0.458408 37.104C0.164894 36.8105 0 36.4124 0 35.9974C0 35.5823 0.164894 35.1842 0.458408 34.8907C0.751921 34.5971 1.15001 34.4323 1.5651 34.4323H10.9557C11.3708 34.4323 11.7689 34.5971 12.0624 34.8907C12.3559 35.1842 12.5208 35.5823 12.5208 35.9974C12.5208 36.4124 12.3559 36.8105 12.0624 37.104C11.7689 37.3976 11.3708 37.5625 10.9557 37.5625Z" fill="white"/>
<path d="M70.4296 37.5625H61.039C60.6239 37.5625 60.2258 37.3976 59.9323 37.104C59.6388 36.8105 59.4739 36.4124 59.4739 35.9974C59.4739 35.5823 59.6388 35.1842 59.9323 34.8907C60.2258 34.5971 60.6239 34.4323 61.039 34.4323H70.4296C70.8447 34.4323 71.2428 34.5971 71.5363 34.8907C71.8298 35.1842 71.9947 35.5823 71.9947 35.9974C71.9947 36.4124 71.8298 36.8105 71.5363 37.104C71.2428 37.3976 70.8447 37.5625 70.4296 37.5625Z" fill="white"/>
<path d="M35.9974 37.5625C36.8617 37.5625 37.5625 36.8617 37.5625 35.9974C37.5625 35.133 36.8617 34.4323 35.9974 34.4323C35.133 34.4323 34.4323 35.133 34.4323 35.9974C34.4323 36.8617 35.133 37.5625 35.9974 37.5625Z" fill="white"/>
<path d="M23.4765 37.5625C24.3409 37.5625 25.0416 36.8617 25.0416 35.9974C25.0416 35.133 24.3409 34.4323 23.4765 34.4323C22.6121 34.4323 21.9114 35.133 21.9114 35.9974C21.9114 36.8617 22.6121 37.5625 23.4765 37.5625Z" fill="white"/>
<path d="M48.5181 37.5625C49.3825 37.5625 50.0832 36.8617 50.0832 35.9974C50.0832 35.133 49.3825 34.4323 48.5181 34.4323C47.6537 34.4323 46.953 35.133 46.953 35.9974C46.953 36.8617 47.6537 37.5625 48.5181 37.5625Z" fill="white"/>
</svg>
