<svg width="64" height="94" viewBox="0 0 64 94" fill="none" xmlns="http://www.w3.org/2000/svg">
<g clip-path="url(#clip0_412:614)">
<path d="M23.4528 9.47221C24.6791 9.14367 25.031 8.38351 24.9918 7.29801C24.9425 5.93064 24.9983 4.55982 24.9742 3.19109C24.9422 1.37239 23.635 0.0350887 21.8288 0.0199131C18.7083 -0.00630061 15.5877 -0.00625104 12.4668 0.0200618C10.6393 0.0358975 9.37691 1.33367 9.33796 3.19082C9.30995 4.52678 9.37165 5.86548 9.31684 7.19979C9.26975 8.34622 9.58049 9.19231 10.8372 9.46716C10.6306 12.382 9.68085 15.1947 8.07894 17.6358C7.13945 19.0819 6.11445 20.4719 5.14917 21.9016C1.78608 26.7926 -0.00633621 32.5974 0.0120087 38.5384C-0.00692749 54.6747 -0.00807571 70.811 0.00855255 86.9474C0.0111923 91.8246 4.05482 94.888 8.72701 93.5851C8.91458 93.5328 9.10643 93.493 9.28979 93.4287C10.9524 92.8459 12.496 92.5809 14.3012 93.373C16.5813 94.3735 19.0303 94.0193 21.2983 92.9561C21.5677 92.8198 21.8618 92.7396 22.1629 92.7205C22.4641 92.7014 22.7659 92.7436 23.0503 92.8448C24.1635 93.1954 25.2883 93.5291 26.4295 93.7671C27.3633 93.9585 28.3273 93.9443 29.2551 93.7257C30.1829 93.5071 31.0523 93.0891 31.8033 92.5007C32.5543 91.9124 33.1691 91.1675 33.6051 90.3177C34.0411 89.4679 34.2881 88.5333 34.3288 87.5784C34.3762 86.4067 34.3451 85.2317 34.3451 84.0582C34.3458 69.2258 34.2991 54.3932 34.3661 39.5611C34.3974 32.6424 32.5201 26.3998 28.4527 20.813C26.5139 18.15 24.6202 15.4574 23.9334 12.1386C23.7563 11.2828 23.622 10.418 23.4528 9.47221ZM31.1548 39.188V74.1118H3.17869V39.188H31.1548ZM31.2163 77.356C31.2163 84.1366 31.2535 80.8125 31.1951 87.4876C31.1759 89.6867 29.0277 91.2075 26.885 90.6769C25.5004 90.3341 24.1518 89.8297 22.7564 89.5523C22.0789 89.4129 21.3747 89.493 20.7455 89.781C18.3271 91.0602 15.9933 91.0424 13.5817 89.7714C12.9828 89.4905 12.3112 89.4046 11.6611 89.5259C10.4555 89.7517 9.28828 90.1816 8.1031 90.5198C5.16441 91.3585 3.1301 89.8328 3.12816 86.7814C3.12427 80.6239 3.12451 84.4663 3.12889 78.3087C3.12902 77.9961 3.15673 77.6835 3.17232 77.356H31.2163ZM14.0552 9.46302H20.2275C20.5616 11.0239 20.826 12.5292 21.2111 14.0028C22.043 17.1858 23.8888 19.8341 25.7816 22.4475C27.6848 25.0751 29.2385 27.886 30.0986 31.0303C30.5369 32.6328 30.8198 34.278 31.1864 35.9658H3.13572C3.56148 34.11 3.89355 32.3278 4.38461 30.5908C5.45764 26.7952 7.68304 23.6169 9.9483 20.4694C11.7034 18.0745 12.9343 15.335 13.5605 12.43C13.7674 11.4495 13.8928 10.4517 14.0552 9.46302ZM21.8227 6.21326H12.5254V3.20206H21.8227L21.8227 6.21326Z" fill="white"/>
<path d="M59.4197 28.5858C60.5552 28.3361 60.9192 27.5603 60.8945 26.4292C60.8489 24.3433 60.8899 22.2556 60.8791 20.1688C60.8662 17.6823 59.2596 16.0519 56.8022 16.0441C53.2579 16.0329 49.7136 16.0333 46.1693 16.0451C43.8203 16.0546 42.18 17.6864 42.1554 20.0359C42.1338 22.09 42.1884 24.1454 42.1359 26.1983C42.1051 27.4041 42.3423 28.3513 43.6338 28.5927C43.9864 32.091 43.5043 35.3492 41.757 38.3759C39.6825 41.9697 38.8714 45.8544 39.0107 50.0046C39.167 54.6631 39.0609 59.3313 39.2603 63.987C39.3743 66.6473 40.1083 69.2885 40.138 71.9431C40.1845 76.1047 39.8919 80.2714 39.7001 84.4339C39.6236 86.0932 39.3997 87.7453 39.3018 89.4041C39.1478 92.015 41.5151 94.1357 44.024 93.4265C45.7825 92.8811 47.6729 92.9459 49.3901 93.6107C50.9435 94.1749 52.6534 94.1214 54.1686 93.4612C55.5433 92.8764 57.0855 92.8242 58.4963 93.3147C59.2095 93.5305 59.9638 93.5719 60.6962 93.4354C62.6739 93.0481 63.8893 91.219 63.7153 89.1461C63.4071 85.4762 63.1087 81.8055 62.8199 78.134C62.5095 74.2722 62.958 70.4582 63.4706 66.6392C63.7386 64.6374 63.8925 62.622 63.9315 60.6026C64.0132 56.3975 64.0019 52.1903 63.9955 47.984C63.9635 44.9729 63.2032 42.0145 61.7801 39.3628C60.7341 37.3383 59.5984 35.3285 59.4378 32.9926C59.3398 31.5676 59.4197 30.1304 59.4197 28.5858ZM42.4276 64.6327H60.5938C60.5177 65.2524 60.4633 65.8029 60.3808 66.3491C59.8204 70.0618 59.3994 73.7853 59.671 77.5482C59.9478 81.3841 60.2584 85.2177 60.5644 89.0514C60.6642 90.3018 60.3286 90.6555 59.1228 90.2481C57.2204 89.5553 55.1255 89.6208 53.2699 90.431C52.4575 90.7733 51.3354 90.9089 50.5281 90.6308C48.1616 89.8158 45.8693 89.3865 43.4518 90.3699C42.8646 90.6088 42.4098 90.2033 42.4332 89.5544C42.4693 88.5519 42.5953 87.5526 42.6899 86.4745C43.5767 86.4745 44.387 86.5055 45.1939 86.4666C46.1864 86.4188 46.8374 85.7546 46.8257 84.8762C46.8139 83.987 46.1599 83.3802 45.152 83.3541C44.4446 83.3358 43.7363 83.3506 42.9376 83.3506C43.0329 82.2542 43.1186 81.269 43.2101 80.2175C44.4 80.2175 45.5019 80.2366 46.603 80.2122C47.7139 80.1876 48.4254 79.5118 48.3863 78.572C48.3481 77.6568 47.6794 77.102 46.5726 77.0907C45.545 77.0802 44.5172 77.0885 43.4708 77.0885V73.9497C44.1047 73.9497 44.6836 73.9843 45.2568 73.9419C46.235 73.8695 46.8732 73.1717 46.8241 72.2905C46.7765 71.4379 46.1443 70.8624 45.1864 70.8324C44.5492 70.8124 43.9109 70.8286 43.249 70.8286C42.9667 68.6989 42.702 66.7029 42.4276 64.6327ZM60.7725 45.8304V61.3578H42.2763V45.8304H60.7725ZM43.0799 42.5973C45.6392 38.1857 47.4808 33.7156 46.7363 28.6381H56.3268C55.5278 33.7847 57.4435 38.2095 59.9326 42.5973H43.0799ZM45.2781 25.4071C45.2781 23.5382 45.2388 21.7513 45.3191 19.9697C45.3316 19.6917 45.8854 19.213 46.1948 19.2082C49.7373 19.1539 53.2803 19.1523 56.8238 19.2032C57.1327 19.2073 57.6917 19.62 57.7014 19.8605C57.7755 21.6995 57.742 23.5429 57.742 25.4071H45.2781Z" fill="white"/>
<path d="M29.9999 57.0074C29.9979 59.5846 29.2299 62.103 27.7933 64.2427C26.3568 66.3824 24.3166 68.0469 21.9319 69.0246C19.5473 70.0023 16.9258 70.2492 14.4006 69.7339C11.8753 69.2185 9.56019 67.9642 7.7494 66.1303C5.93861 64.2964 4.71385 61.9656 4.23071 59.4341C3.74756 56.9027 4.02785 54.2847 5.03595 51.9128C6.04406 49.541 7.73449 47.5223 9.89248 46.1133C12.0505 44.7042 14.5786 43.9684 17.1558 43.9992C20.5778 44.0411 23.8454 45.4302 26.2498 47.8653C28.6543 50.3005 30.0017 53.5853 29.9999 57.0074ZM17.0131 68.3134C19.2526 68.3093 21.4406 67.6412 23.3004 66.3937C25.1602 65.1462 26.6083 63.3753 27.4616 61.3048C28.3149 59.2344 28.535 56.9574 28.0942 54.7619C27.6533 52.5663 26.5713 50.5508 24.985 48.9701C23.3986 47.3895 21.3791 46.3147 19.1819 45.8817C16.9846 45.4486 14.7083 45.6768 12.6408 46.5374C10.5733 47.398 8.80737 48.8523 7.56639 50.7164C6.32541 52.5805 5.66509 54.7707 5.66893 57.0101C5.66906 58.4978 5.96288 59.9709 6.53352 61.3448C7.10416 62.7187 7.9404 63.9665 8.9943 65.0166C10.0482 66.0667 11.299 66.8985 12.6751 67.4642C14.0511 68.03 15.5253 68.3185 17.0131 68.3134Z" fill="white" stroke="white" stroke-width="0.5"/>
<path d="M21.119 58.1531C21.1171 58.1464 21.1153 58.1399 21.1136 58.1337C21.095 58.0667 21.0845 58.0292 21.0744 57.9914C20.9685 57.5952 20.8627 57.199 20.757 56.8028C20.3686 55.3479 19.9803 53.8929 19.582 52.4406C19.5584 52.3545 19.5091 52.2457 19.4518 52.1574C19.4232 52.1132 19.3913 52.0722 19.3581 52.0414C19.3264 52.0119 19.2864 51.985 19.2416 51.9833C18.5743 51.9569 17.9056 51.9596 17.2376 51.9623C17.035 51.9631 16.8325 51.9639 16.6301 51.9639H16.5801V52.0139V61.3377V61.3877H16.6301H18.3354H18.3854V61.3377V54.454L18.4059 54.4535C18.412 54.4718 18.4182 54.4897 18.4243 54.5074C18.445 54.5678 18.465 54.6258 18.4803 54.6866C18.9309 56.4818 19.3827 58.2768 19.8358 60.0714C19.9197 60.4037 19.9836 60.6559 20.0536 60.8453C20.1238 61.0351 20.2026 61.1689 20.3205 61.2591C20.4383 61.3493 20.5885 61.3908 20.79 61.411C20.9829 61.4303 21.2299 61.4305 21.5507 61.4309L21.5882 61.4309C21.6595 61.4429 21.7326 61.44 21.8029 61.4223C21.8745 61.4042 21.9415 61.3711 21.9994 61.3252C22.0574 61.2793 22.1049 61.2216 22.1389 61.156C22.1722 61.0918 22.1917 61.0213 22.1963 60.9491C22.4718 59.7995 22.7635 58.654 23.0552 57.508C23.1517 57.1291 23.2482 56.7502 23.3441 56.371L23.8331 54.4503L23.8572 54.453V61.3356V61.3856H23.9072H25.6137H25.6637V61.3356V52.0091V51.9591H25.6137C25.3779 51.9591 25.1449 51.9607 24.9139 51.9623C24.3542 51.966 23.8063 51.9697 23.2587 51.9508C23.0799 51.9446 22.9468 51.9739 22.8476 52.056C22.7495 52.1372 22.6937 52.2629 22.6517 52.4276C22.2774 53.8947 21.8884 55.3581 21.4994 56.8218C21.4088 57.1626 21.3182 57.5034 21.2278 57.8442C21.2076 57.9202 21.18 57.9928 21.1417 58.0933C21.1345 58.1122 21.1269 58.1321 21.119 58.1531Z" fill="white" stroke="white" stroke-width="0.1"/>
<path d="M15.4177 52.0417V51.9917H15.3677H8H7.95V52.0417V53.6069V53.6569H8H10.7033V61.3281V61.3781H10.7533H12.6289H12.6789V61.3281V53.6454H15.3677H15.4177V53.5954V52.0417Z" fill="white" stroke="white" stroke-width="0.1"/>
</g>
<defs>
<clipPath id="clip0_412:614">
<rect width="64" height="94" fill="white" transform="matrix(-1 0 0 1 64 0)"/>
</clipPath>
</defs>
</svg>
