<svg width="85" height="85" viewBox="0 0 85 85" fill="none" xmlns="http://www.w3.org/2000/svg">
<path d="M41.1291 41.129C41.4499 41.1297 41.7606 41.0171 42.0065 40.811L47.9263 35.8755C51.3814 33.0041 54.1608 29.4062 56.0665 25.3379C57.9722 21.2697 58.9573 16.8312 58.9516 12.3387C58.9516 11.9751 58.8072 11.6264 58.5501 11.3693C58.293 11.1122 57.9443 10.9678 57.5807 10.9678H56.7581C51.3895 10.9601 46.1821 9.13279 41.9859 5.78412C41.7428 5.58944 41.4406 5.48337 41.1291 5.48337C40.8176 5.48337 40.5154 5.58944 40.2722 5.78412C36.076 9.13279 30.8686 10.9601 25.5 10.9678H24.6775C24.3138 10.9678 23.9651 11.1122 23.708 11.3693C23.4509 11.6264 23.3065 11.9751 23.3065 12.3387C23.3005 16.8311 24.2854 21.2695 26.1909 25.3378C28.0963 29.4061 30.8755 33.0041 34.3304 35.8755L40.2516 40.811C40.4975 41.0171 40.8083 41.1297 41.1291 41.129ZM26.0813 13.7097C31.5037 13.5806 36.756 11.7909 41.1291 8.58227C45.5024 11.7905 50.7545 13.5801 56.1768 13.7097C55.993 17.566 55.0081 21.3418 53.2851 24.7966C51.562 28.2514 49.1385 31.3097 46.1687 33.7765L41.1291 37.9758L36.0853 33.7738C33.1168 31.3067 30.6944 28.2487 28.9721 24.7944C27.2498 21.3401 26.2653 17.5652 26.0813 13.7097Z" fill="white"/>
<path d="M29.421 41.3017C29.2283 41.1928 29.0116 41.1334 28.7903 41.129H17.8226C17.459 41.129 17.1103 41.2734 16.8531 41.5305C16.596 41.7876 16.4516 42.1364 16.4516 42.5V53.4677C16.4516 53.8313 16.596 54.18 16.8531 54.4371C17.1103 54.6942 17.459 54.8387 17.8226 54.8387H28.7903C29.1539 54.8387 29.5026 54.6942 29.7597 54.4371C30.0168 54.18 30.1613 53.8313 30.1613 53.4677V44.4385L33.8725 40.7273L31.9339 38.7887L29.421 41.3017ZM27.4193 52.0967H19.1935V43.8709H26.8518L23.3064 47.4162L21.5338 45.6436L19.5952 47.5821L22.3372 50.3241C22.5943 50.5811 22.9429 50.7255 23.3064 50.7255C23.67 50.7255 24.0186 50.5811 24.2757 50.3241L27.4193 47.1804V52.0967Z" fill="white"/>
<path d="M31.9339 60.7243L29.421 63.2373C29.2283 63.1283 29.0116 63.0689 28.7903 63.0645H17.8226C17.459 63.0645 17.1103 63.209 16.8531 63.4661C16.596 63.7232 16.4516 64.0719 16.4516 64.4355V75.4032C16.4516 75.7668 16.596 76.1155 16.8531 76.3726C17.1103 76.6298 17.459 76.7742 17.8226 76.7742H28.7903C29.1539 76.7742 29.5026 76.6298 29.7597 76.3726C30.0168 76.1155 30.1613 75.7668 30.1613 75.4032V66.374L33.8725 62.6628L31.9339 60.7243ZM27.4193 74.0323H19.1935V65.8065H26.8518L23.3064 69.3518L21.5338 67.5791L19.5952 69.5177L22.3372 72.2596C22.5943 72.5166 22.9429 72.661 23.3064 72.661C23.67 72.661 24.0186 72.5166 24.2757 72.2596L27.4193 69.116V74.0323Z" fill="white"/>
<path d="M65.8065 74.0323H35.6452V76.7742H65.8065V74.0323Z" fill="white"/>
<path d="M42.0215 33.9438L46.3099 30.2682C49.9756 27.1162 52.4845 22.8308 53.4389 18.0913C53.4786 17.8926 53.4738 17.6875 53.4248 17.4909C53.3757 17.2943 53.2837 17.111 53.1554 16.9542C53.027 16.7974 52.8655 16.671 52.6825 16.5841C52.4994 16.4972 52.2993 16.4519 52.0967 16.4516C48.8348 16.4448 45.6619 15.3872 43.0483 13.4355L41.9515 12.6129C41.7142 12.4349 41.4256 12.3387 41.129 12.3387C40.8323 12.3387 40.5437 12.4349 40.3064 12.6129L39.2096 13.4355C36.596 15.3872 33.4231 16.4448 30.1612 16.4516C29.9579 16.4516 29.7571 16.4968 29.5734 16.5839C29.3897 16.671 29.2277 16.7979 29.0991 16.9554C28.9705 17.1129 28.8785 17.297 28.8298 17.4944C28.7812 17.6918 28.777 17.8976 28.8177 18.0968C29.772 22.8363 32.2809 27.1216 35.9467 30.2737L40.2351 33.9493C40.4834 34.1617 40.7994 34.2784 41.1262 34.2784C41.453 34.2784 41.769 34.1617 42.0174 33.9493L42.0215 33.9438ZM37.7317 28.1857C34.9457 25.7895 32.915 22.6363 31.8859 19.1085C35.1363 18.7859 38.2372 17.5829 40.8548 15.629L41.129 15.4234L41.4032 15.629C44.0207 17.5829 47.1216 18.7859 50.372 19.1085C49.343 22.6363 47.3122 25.7895 44.5262 28.1857L41.129 31.0977L37.7317 28.1857Z" fill="white"/>
<path d="M85 50.7258C84.995 46.9657 83.5868 43.3428 81.0511 40.5664C78.5153 37.79 75.0346 36.06 71.2903 35.7151V1.37097C71.2903 1.00736 71.1459 0.658653 70.8888 0.401547C70.6317 0.144441 70.283 0 69.9194 0H12.3387C11.9751 0 11.6264 0.144441 11.3693 0.401547C11.1122 0.658653 10.9677 1.00736 10.9677 1.37097V35.6452H1.37097C1.00736 35.6452 0.658653 35.7896 0.401547 36.0467C0.144441 36.3038 0 36.6525 0 37.0161V78.1452C0.0021769 79.9625 0.72508 81.7048 2.01014 82.9899C3.2952 84.2749 5.03749 84.9978 6.85484 85H64.4355C66.2528 84.9978 67.9951 84.2749 69.2802 82.9899C70.5652 81.7048 71.2881 79.9625 71.2903 78.1452V65.7365C75.0346 65.3916 78.5153 63.6616 81.0511 60.8852C83.5868 58.1088 84.995 54.4859 85 50.7258ZM2.74194 78.1452V38.3871H10.9677V78.1452C10.9677 79.236 10.5344 80.2821 9.7631 81.0534C8.99178 81.8247 7.94565 82.2581 6.85484 82.2581C5.76403 82.2581 4.7179 81.8247 3.94658 81.0534C3.17526 80.2821 2.74194 79.236 2.74194 78.1452ZM64.4355 82.2581H12.3031C13.2104 81.0785 13.7046 79.6333 13.7097 78.1452V2.74194H68.5484V35.7151C64.8041 36.06 61.3234 37.79 58.7877 40.5664C56.2519 43.3428 54.8437 46.9657 54.8387 50.7258C54.8387 51.1892 54.8675 51.6444 54.9086 52.0968H35.6452V54.8387H55.4227C56.2573 57.7665 57.9571 60.3737 60.2994 62.3185C62.6417 64.2632 65.5171 65.4546 68.5484 65.7365V78.1452C68.5484 79.236 68.1151 80.2821 67.3437 81.0534C66.5724 81.8247 65.5263 82.2581 64.4355 82.2581ZM69.9194 63.0645C67.479 63.0645 65.0934 62.3409 63.0643 60.9851C61.0352 59.6293 59.4538 57.7022 58.5199 55.4476C57.586 53.193 57.3416 50.7121 57.8177 48.3186C58.2938 45.9252 59.469 43.7266 61.1946 42.001C62.9202 40.2754 65.1187 39.1003 67.5122 38.6242C69.9057 38.1481 72.3866 38.3924 74.6412 39.3263C76.8958 40.2602 78.8228 41.8417 80.1786 43.8708C81.5344 45.8999 82.2581 48.2854 82.2581 50.7258C82.2541 53.997 80.9528 57.1331 78.6397 59.4462C76.3266 61.7593 73.1906 63.0605 69.9194 63.0645Z" fill="white"/>
<path d="M79.1145 45.6436L76.3725 42.9017C76.1154 42.6447 75.7668 42.5003 75.4033 42.5003C75.0397 42.5003 74.6911 42.6447 74.434 42.9017L67.1775 50.1582L65.4048 48.3856C65.1477 48.1285 64.799 47.9842 64.4355 47.9842C64.072 47.9842 63.7233 48.1285 63.4662 48.3856L60.7243 51.1275C60.4673 51.3846 60.3229 51.7332 60.3229 52.0968C60.3229 52.4603 60.4673 52.809 60.7243 53.0661L66.2082 58.5499C66.4653 58.8069 66.8139 58.9513 67.1775 58.9513C67.541 58.9513 67.8896 58.8069 68.1467 58.5499L79.1145 47.5822C79.3715 47.3251 79.5159 46.9764 79.5159 46.6129C79.5159 46.2494 79.3715 45.9007 79.1145 45.6436ZM67.1775 55.6421L63.6321 52.0968L64.4355 51.2934L66.2082 53.0661C66.4653 53.3231 66.8139 53.4675 67.1775 53.4675C67.541 53.4675 67.8896 53.3231 68.1467 53.0661L75.4033 45.8095L76.2066 46.6129L67.1775 55.6421Z" fill="white"/>
</svg>
