<svg width="74" height="75" viewBox="0 0 74 75" fill="none" xmlns="http://www.w3.org/2000/svg">
<path d="M8.80855 68.8995C7.18155 68.8995 5.41951 69.3969 3.90605 69.8581C2.3926 70.3193 1.18675 70.784 1.18675 70.784C0.964042 70.8605 0.758883 70.9814 0.583535 71.1397C0.408187 71.298 0.266247 71.4903 0.166197 71.7053C0.0661464 71.9202 0.0100394 72.1533 0.00122829 72.3906C-0.00758284 72.6279 0.0310827 72.8645 0.114914 73.0864C0.198746 73.3083 0.326024 73.5108 0.489142 73.6819C0.65226 73.853 0.84787 73.9893 1.06429 74.0823C1.2807 74.1754 1.51348 74.2235 1.74871 74.2237C1.98394 74.2239 2.2168 74.1762 2.43337 74.0835C2.43337 74.0835 3.52842 73.6644 4.91368 73.2423C6.29895 72.8202 8.03041 72.4337 8.80855 72.4337C9.58669 72.4337 10.5406 72.7616 11.6893 73.2032C12.838 73.6448 14.1833 74.2008 15.8103 74.2008C17.4373 74.2008 18.7825 73.6448 19.9312 73.2032C21.0799 72.7615 22.0339 72.4337 22.812 72.4337C23.5901 72.4337 24.5376 72.7616 25.6863 73.2032C26.835 73.6448 28.1867 74.2008 29.8137 74.2008C31.4407 74.2008 32.7859 73.6448 33.9347 73.2032C35.0834 72.7615 36.0308 72.4337 36.809 72.4337C37.5871 72.4337 38.541 72.7616 39.6898 73.2032C40.8385 73.6448 42.1837 74.2008 43.8107 74.2008C45.4377 74.2008 46.7829 73.6448 47.9316 73.2032C49.0804 72.7615 50.0343 72.4337 50.8124 72.4337C51.5906 72.4337 52.538 72.7616 53.6868 73.2032C54.8355 73.6448 56.1871 74.2008 57.8142 74.2008C59.4412 74.2008 60.7864 73.6448 61.9351 73.2032C63.0838 72.7615 64.0313 72.4337 64.8094 72.4337C65.5876 72.4337 67.3255 72.8202 68.7107 73.2423C70.096 73.6644 71.1911 74.0835 71.1911 74.0835C71.4084 74.1799 71.6429 74.2308 71.8803 74.2328C72.1178 74.2349 72.3531 74.1882 72.5721 74.0955C72.791 74.0028 72.989 73.8661 73.154 73.6938C73.319 73.5214 73.4475 73.3169 73.5317 73.0928C73.616 72.8687 73.6542 72.6297 73.644 72.3902C73.6338 72.1508 73.5754 71.9158 73.4725 71.6999C73.3695 71.4839 73.2241 71.2913 73.0451 71.1339C72.8661 70.9764 72.6572 70.8574 72.4312 70.784C72.4312 70.784 71.2318 70.3193 69.7184 69.8581C68.2049 69.3969 66.4364 68.8995 64.8094 68.8995C63.1824 68.8995 61.8372 69.4621 60.6885 69.9037C59.5398 70.3454 58.5923 70.6666 57.8142 70.6666C57.036 70.6666 56.0821 70.3455 54.9334 69.9037C53.7847 69.4621 52.4394 68.8995 50.8124 68.8995C49.1854 68.8995 47.8402 69.4621 46.6915 69.9037C45.5428 70.3454 44.5888 70.6666 43.8107 70.6666C43.0326 70.6666 42.0851 70.3455 40.9364 69.9037C39.7877 69.4621 38.436 68.8995 36.809 68.8995C35.182 68.8995 33.8368 69.4621 32.688 69.9037C31.5393 70.3454 30.5919 70.6666 29.8137 70.6666C29.0356 70.6666 28.0817 70.3455 26.9329 69.9037C25.7842 69.4621 24.439 68.8995 22.812 68.8995C21.185 68.8995 19.8398 69.4621 18.6911 69.9037C17.5423 70.3454 16.5884 70.6666 15.8103 70.6666C15.0321 70.6666 14.0847 70.3455 12.936 69.9037C11.7872 69.4621 10.4356 68.8995 8.80855 68.8995Z" fill="white"/>
<path d="M8.80861 58.3034C7.18161 58.3034 5.41957 58.8008 3.90611 59.262C2.39266 59.7232 1.18681 60.1814 1.18681 60.1814C0.752549 60.3483 0.401743 60.6825 0.211566 61.1105C0.0213892 61.5385 0.00741991 62.0252 0.172732 62.4636C0.338043 62.902 0.669094 63.2562 1.09306 63.4481C1.51702 63.6401 1.99917 63.6543 2.43343 63.4874C2.43343 63.4874 3.52848 63.0683 4.91374 62.6462C6.29901 62.2241 8.03047 61.8376 8.80861 61.8376C9.58675 61.8376 10.5407 62.1588 11.6894 62.6006C12.8381 63.0422 14.1833 63.6047 15.8103 63.6047C17.4373 63.6047 18.7826 63.0422 19.9313 62.6006C21.08 62.1589 22.0339 61.8376 22.8121 61.8376C23.5902 61.8376 24.5377 62.1588 25.6864 62.6006C26.8351 63.0422 28.1868 63.6047 29.8138 63.6047C31.4408 63.6047 32.786 63.0422 33.9347 62.6006C35.0834 62.1589 36.0309 61.8376 36.809 61.8376C37.5872 61.8376 38.5411 62.1588 39.6898 62.6006C40.8385 63.0422 42.1838 63.6047 43.8108 63.6047C45.4378 63.6047 46.783 63.0422 47.9317 62.6006C49.0804 62.1589 50.0343 61.8376 50.8125 61.8376C51.5906 61.8376 52.5381 62.1588 53.6868 62.6006C54.8355 63.0422 56.1872 63.6047 57.8142 63.6047C59.4412 63.6047 60.7864 63.0422 61.9351 62.6006C63.0839 62.1589 64.0313 61.8376 64.8095 61.8376C65.5876 61.8376 67.3255 62.2241 68.7108 62.6462C70.0961 63.0683 71.1911 63.4874 71.1911 63.4874C71.6254 63.6534 72.1072 63.6384 72.5305 63.4458C72.9539 63.2532 73.2841 62.8988 73.4486 62.4604C73.613 62.022 73.5982 61.5355 73.4075 61.1081C73.2167 60.6808 72.8655 60.3474 72.4313 60.1814C72.4313 60.1814 71.2319 59.7232 69.7184 59.262C68.205 58.8008 66.4365 58.3034 64.8095 58.3034C63.1825 58.3034 61.8372 58.8594 60.6885 59.3011C59.5398 59.7428 58.5924 60.0705 57.8142 60.0705C57.0361 60.0705 56.0821 59.7427 54.9334 59.3011C53.7847 58.8594 52.4395 58.3034 50.8125 58.3034C49.1855 58.3034 47.8403 58.8594 46.6915 59.3011C45.5428 59.7428 44.5889 60.0705 43.8108 60.0705C43.0326 60.0705 42.0852 59.7427 40.9364 59.3011C39.7877 58.8594 38.436 58.3034 36.809 58.3034C35.182 58.3034 33.8368 58.8594 32.6881 59.3011C31.5394 59.7428 30.5919 60.0705 29.8138 60.0705C29.0356 60.0705 28.0817 59.7427 26.933 59.3011C25.7843 58.8594 24.4391 58.3034 22.8121 58.3034C21.1851 58.3034 19.8398 58.8594 18.6911 59.3011C17.5424 59.7428 16.5885 60.0705 15.8103 60.0705C15.0322 60.0705 14.0847 59.7427 12.936 59.3011C11.7873 58.8594 10.4356 58.3034 8.80861 58.3034Z" fill="white"/>
<path fill-rule="evenodd" clip-rule="evenodd" d="M36.7251 0.00212541C36.4309 0.0171899 36.1453 0.106996 35.8946 0.263156C35.644 0.419315 35.4364 0.63677 35.2912 0.895457C31.8806 6.92073 27.5449 12.3843 23.9876 17.6536C20.4304 22.9229 17.5608 28.0522 17.5608 33.5705C17.5608 44.2823 26.1983 53.0021 36.8091 53.0021C47.4198 53.0021 56.0638 44.2823 56.0638 33.5705C56.0638 28.0522 53.1877 22.9229 49.6305 17.6536C46.0733 12.3843 41.744 6.92073 38.3334 0.895457C38.1736 0.610811 37.9386 0.376569 37.6546 0.218836C37.3706 0.061103 37.0488 -0.0139172 36.7251 0.00212541ZM36.8091 4.89915C40.0851 10.2235 43.7572 15.2191 46.7432 19.6424C50.186 24.7422 52.5629 29.3318 52.5629 33.5705C52.5629 42.3728 45.5283 49.4679 36.8091 49.4679C28.0898 49.4679 21.0616 42.3728 21.0616 33.5705C21.0616 29.3318 23.4385 24.7422 26.8813 19.6424C29.8668 15.2201 33.5335 10.2222 36.8091 4.89915Z" fill="white"/>
<path fill-rule="evenodd" clip-rule="evenodd" d="M56.0638 0.00213623C52.2185 0.00213623 49.0621 3.18864 49.0621 7.07054C49.0621 10.9524 52.2185 14.1324 56.0638 14.1324C59.9091 14.1324 63.0591 10.9524 63.0591 7.07054C63.0591 3.18864 59.9091 0.00213623 56.0638 0.00213623ZM56.0638 3.53634C58.0175 3.53634 59.5647 5.09821 59.5647 7.07054C59.5647 9.04288 58.0175 10.6047 56.0638 10.6047C54.1101 10.6047 52.5629 9.04288 52.5629 7.07054C52.5629 5.09821 54.1101 3.53634 56.0638 3.53634Z" fill="white"/>
<path fill-rule="evenodd" clip-rule="evenodd" d="M25.1892 31.7774C24.9593 31.7807 24.7323 31.8298 24.5212 31.9217C24.3101 32.0137 24.119 32.1468 23.9589 32.3133C23.7987 32.4798 23.6726 32.6766 23.5878 32.8923C23.503 33.108 23.4611 33.3385 23.4646 33.5705C23.4646 41.0388 29.4114 47.0422 36.8092 47.0422C37.0391 47.0422 37.2667 46.9966 37.4791 46.9078C37.6914 46.819 37.8844 46.6888 38.0469 46.5247C38.2095 46.3606 38.3384 46.1658 38.4264 45.9514C38.5143 45.737 38.5596 45.5072 38.5596 45.2751C38.5596 45.0431 38.5143 44.8133 38.4264 44.5989C38.3384 44.3845 38.2095 44.1897 38.0469 44.0256C37.8844 43.8615 37.6914 43.7313 37.4791 43.6425C37.2667 43.5537 37.0391 43.508 36.8092 43.508C31.2557 43.508 26.9654 39.1769 26.9654 33.5705C26.969 33.3341 26.9254 33.0993 26.8374 32.8802C26.7494 32.661 26.6187 32.4619 26.453 32.2946C26.2874 32.1274 26.0902 31.9955 25.8731 31.9067C25.656 31.8178 25.4234 31.7738 25.1892 31.7774Z" fill="white"/>
</svg>
