<svg width="65" height="65" viewBox="0 0 65 65" fill="none" xmlns="http://www.w3.org/2000/svg">
<path fill-rule="evenodd" clip-rule="evenodd" d="M1.53363 0C1.1269 4.06671e-05 0.736839 0.161632 0.449236 0.449236C0.161632 0.736839 4.06671e-05 1.1269 0 1.53363V62.879C4.06671e-05 63.2857 0.161632 63.6758 0.449236 63.9634C0.736839 64.251 1.1269 64.4126 1.53363 64.4126H50.6099C51.0166 64.4126 51.4067 64.251 51.6943 63.9634C51.9819 63.6758 52.1435 63.2857 52.1435 62.879V50.0243L56.0585 51.9818C56.2923 52.0987 56.5522 52.1538 56.8133 52.1421C57.0745 52.1303 57.3283 52.052 57.5507 51.9145C57.7731 51.7771 57.9566 51.5851 58.0839 51.3567C58.2112 51.1284 58.2781 50.8713 58.2781 50.6099V37.5366C61.9726 35.0566 64.4126 30.8423 64.4126 26.0718C64.4126 18.985 59.0307 13.124 52.1435 12.3574V1.53363C52.1435 1.1269 51.9819 0.736839 51.6943 0.449236C51.4067 0.161632 51.0166 4.06671e-05 50.6099 0H1.53363ZM3.06727 3.06727H49.0763V12.3574C42.1905 13.126 36.8057 18.9865 36.8057 26.0718C36.8057 30.8416 39.2465 35.055 42.9417 37.5351V50.6099C42.9417 50.8713 43.0086 51.1284 43.1359 51.3567C43.2632 51.5851 43.4467 51.7771 43.6691 51.9145C43.8915 52.052 44.1453 52.1303 44.4065 52.1421C44.6676 52.1538 44.9275 52.0987 45.1613 51.9818L49.0763 50.0243V61.3453H3.06727V3.06727ZM50.6129 15.3348C56.5601 15.3348 61.3438 20.1246 61.3438 26.0718C61.3438 32.019 56.5601 36.8042 50.6129 36.8042C44.6657 36.8042 39.8745 32.019 39.8745 26.0718C39.8745 20.1246 44.6657 15.3348 50.6129 15.3348ZM46.009 39.0657C47.4516 39.5789 48.9976 39.873 50.6129 39.873C52.227 39.873 53.7694 39.5796 55.2108 39.0672V48.1282L51.2958 46.1707C51.0829 46.0643 50.848 46.0088 50.6099 46.0088C50.3718 46.0088 50.1369 46.0643 49.924 46.1707L46.009 48.1282V39.0657Z" fill="white"/>
<path d="M10.7338 18.4024C10.5324 18.4024 10.3329 18.442 10.1468 18.5191C9.96068 18.5962 9.79157 18.7092 9.64913 18.8517C9.50668 18.9941 9.39369 19.1633 9.3166 19.3494C9.23951 19.5355 9.19983 19.7349 9.19983 19.9364C9.19983 20.1378 9.23951 20.3373 9.3166 20.5234C9.39369 20.7095 9.50668 20.8786 9.64913 21.0211C9.79157 21.1635 9.96068 21.2766 10.1468 21.3536C10.3329 21.4307 10.5324 21.4704 10.7338 21.4704H26.0739C26.2754 21.4704 26.4749 21.4307 26.661 21.3536C26.8471 21.2766 27.0162 21.1635 27.1586 21.0211C27.3011 20.8786 27.4141 20.7095 27.4912 20.5234C27.5683 20.3373 27.6079 20.1378 27.6079 19.9364C27.6079 19.7349 27.5683 19.5355 27.4912 19.3494C27.4141 19.1633 27.3011 18.9941 27.1586 18.8517C27.0162 18.7092 26.8471 18.5962 26.661 18.5191C26.4749 18.442 26.2754 18.4024 26.0739 18.4024H10.7338Z" fill="white"/>
<path d="M10.7338 24.5384C10.327 24.5384 9.93681 24.7 9.64913 24.9877C9.36145 25.2754 9.19983 25.6656 9.19983 26.0724C9.19983 26.4793 9.36145 26.8695 9.64913 27.1571C9.93681 27.4448 10.327 27.6064 10.7338 27.6064H26.0739C26.4808 27.6064 26.871 27.4448 27.1586 27.1571C27.4463 26.8695 27.6079 26.4793 27.6079 26.0724C27.6079 25.6656 27.4463 25.2754 27.1586 24.9877C26.871 24.7 26.4808 24.5384 26.0739 24.5384H10.7338Z" fill="white"/>
<path d="M10.7338 30.6745C10.327 30.6745 9.93682 30.8361 9.64913 31.1238C9.36145 31.4115 9.19983 31.8016 9.19983 32.2085C9.19983 32.6153 9.36145 33.0055 9.64913 33.2932C9.93682 33.5809 10.327 33.7425 10.7338 33.7425H26.074C26.4808 33.7425 26.871 33.5809 27.1587 33.2932C27.4464 33.0055 27.608 32.6153 27.608 32.2085C27.608 31.8016 27.4464 31.4115 27.1587 31.1238C26.871 30.8361 26.4808 30.6745 26.074 30.6745H10.7338Z" fill="white"/>
<path d="M10.7338 36.8048C10.5324 36.8048 10.3329 36.8445 10.1468 36.9216C9.96068 36.9987 9.79157 37.1117 9.64913 37.2541C9.50668 37.3966 9.39369 37.5657 9.3166 37.7518C9.23951 37.9379 9.19983 38.1374 9.19983 38.3389C9.19983 38.5403 9.23951 38.7398 9.3166 38.9259C9.39369 39.112 9.50668 39.2811 9.64913 39.4236C9.79157 39.566 9.96068 39.679 10.1468 39.7561C10.3329 39.8332 10.5324 39.8729 10.7338 39.8729H35.2723C35.4738 39.8729 35.6733 39.8332 35.8594 39.7561C36.0455 39.679 36.2146 39.566 36.357 39.4236C36.4995 39.2811 36.6125 39.112 36.6896 38.9259C36.7667 38.7398 36.8064 38.5403 36.8064 38.3389C36.8064 38.1374 36.7667 37.9379 36.6896 37.7518C36.6125 37.5657 36.4995 37.3966 36.357 37.2541C36.2146 37.1117 36.0455 36.9987 35.8594 36.9216C35.6733 36.8445 35.4738 36.8048 35.2723 36.8048H10.7338Z" fill="white"/>
<path d="M10.7338 42.9409C10.5324 42.9409 10.3329 42.9805 10.1468 43.0576C9.96068 43.1347 9.79157 43.2477 9.64913 43.3902C9.50668 43.5326 9.39369 43.7018 9.3166 43.8879C9.23951 44.074 9.19983 44.2734 9.19983 44.4749C9.19983 44.6763 9.23951 44.8758 9.3166 45.0619C9.39369 45.248 9.50668 45.4172 9.64913 45.5596C9.79157 45.702 9.96068 45.8151 10.1468 45.8922C10.3329 45.9693 10.5324 46.0089 10.7338 46.0089H35.2723C35.4738 46.0089 35.6733 45.9693 35.8594 45.8922C36.0455 45.8151 36.2146 45.702 36.357 45.5596C36.4995 45.4172 36.6125 45.248 36.6896 45.0619C36.7667 44.8758 36.8064 44.6763 36.8064 44.4749C36.8064 44.2734 36.7667 44.074 36.6896 43.8879C36.6125 43.7018 36.4995 43.5326 36.357 43.3902C36.2146 43.2477 36.0455 43.1347 35.8594 43.0576C35.6733 42.9805 35.4738 42.9409 35.2723 42.9409H10.7338Z" fill="white"/>
</svg>
