<svg width="16" height="16" viewBox="0 0 16 16" fill="none" xmlns="http://www.w3.org/2000/svg">
<path fill-rule="evenodd" clip-rule="evenodd" d="M0.982071 2.4332C1.08407 2.36984 1.20444 2.33325 1.33335 2.33325H14.6667C14.7937 2.33325 14.9124 2.36877 15.0134 2.43041C15.001 2.42287 14.9885 2.41577 14.9757 2.4091C15.0543 2.4503 15.1237 2.50675 15.1799 2.5745C15.1704 2.56305 15.1607 2.55199 15.1506 2.54133C15.2294 2.62449 15.287 2.72796 15.3148 2.84308C15.3054 2.80403 15.2923 2.76554 15.2756 2.72812C15.3127 2.81114 15.3333 2.90315 15.3333 2.99998V3.00976L15.3334 3.00741V12.9999C15.3334 13.3681 15.0349 13.6666 14.6667 13.6666H1.33335C0.965164 13.6666 0.666687 13.3681 0.666687 12.9999V2.99992C0.666687 2.76064 0.792744 2.55081 0.982071 2.4332ZM0.982071 2.4332C0.989334 2.4287 0.99667 2.42435 1.00408 2.42015C0.945664 2.45339 0.892764 2.49521 0.84709 2.54388C0.887766 2.50041 0.933243 2.46345 0.982071 2.4332ZM1.99999 3.66664H3.33331L8.00003 7.16668L12.6667 3.66664H14V4.33338L8.40003 8.53335C8.16299 8.71113 7.83706 8.71113 7.60003 8.53335L1.99999 4.33332V3.66664Z" fill="#B9CC30"/>
</svg>
