<svg width="20" height="20" viewBox="0 0 20 20" fill="none" xmlns="http://www.w3.org/2000/svg">
<path fill-rule="evenodd" clip-rule="evenodd" d="M2.91666 7.91658C2.91666 4.00456 6.08796 0.833252 9.99999 0.833252C13.912 0.833252 17.0833 4.00456 17.0833 7.91658C17.0833 10.9202 15.367 13.7142 13.7723 15.681C12.9621 16.6802 12.154 17.5016 11.5487 18.0732C11.2456 18.3595 10.992 18.5845 10.8126 18.7391C10.7229 18.8164 10.6517 18.8762 10.602 18.9174C10.5771 18.938 10.5577 18.9539 10.544 18.965L10.5278 18.9781L10.5231 18.982L10.5215 18.9832C10.5215 18.9832 10.5206 18.984 9.99999 18.3333L9.479 18.9836L9.47692 18.982L9.47217 18.9781L9.45599 18.965C9.4423 18.9539 9.42284 18.938 9.398 18.9174C9.34832 18.8762 9.27709 18.8164 9.18738 18.7391C9.00803 18.5845 8.7544 18.3595 8.45124 18.0732C7.84596 17.5016 7.03783 16.6802 6.22769 15.681C4.63301 13.7142 2.91666 10.9202 2.91666 7.91658ZM6.66666 7.91658C6.66666 6.07564 8.15904 4.58325 9.99999 4.58325C11.8409 4.58325 13.3333 6.07564 13.3333 7.91658C13.3333 9.75753 11.8409 11.2499 9.99999 11.2499C8.15904 11.2499 6.66666 9.75753 6.66666 7.91658Z" fill="#B9CC30"/>
<path d="M9.479 18.9836C9.78335 19.2271 10.2162 19.2275 10.5206 18.984L9.99999 18.3333C9.47941 18.984 9.479 18.9836 9.479 18.9836Z" fill="#B9CC30"/>
</svg>
