<svg width="234" height="91" viewBox="0 0 234 91" fill="none" xmlns="http://www.w3.org/2000/svg">
<path fill-rule="evenodd" clip-rule="evenodd" d="M92.4765 11.5783C90.2323 12.6977 89.6795 13.3462 85.363 14.8465C85.6407 16.0092 87.7929 17.6801 85.4801 19.9111C78.6347 26.5124 80.8702 21.9837 80.8702 34.7352C78.6486 34.5508 77.4015 33.6149 74.8796 33.6149C74.8796 41.6179 70.8642 61.3525 69.2639 70.9648C67.6793 67.191 61.7763 38.1185 61.7763 33.6149C58.9212 33.6781 55.5375 35.2547 52.79 35.4823C54.254 41.7503 54.7877 41.2369 53.0928 48.4832L47.9232 70.9648C47.9232 65.7989 42.3075 47.9309 42.3075 33.6149C39.4532 33.6781 36.0687 35.2547 33.322 35.4823L36.408 48.4642C37.1604 51.9721 43.4305 86.349 43.4305 89.6397H52.0419C52.0914 87.4035 56.6006 67.9936 57.4997 63.3376C57.8181 61.6866 57.7661 60.5014 58.7806 59.7595C58.8205 61.5421 64.4718 86.0512 64.7712 89.6397H73.3826L81.2451 47.0608C84.1645 52.3695 85.3265 51.3029 86.3349 55.4291C86.9398 57.9059 87.8501 58.0973 87.9812 60.5092C88.2815 66.0387 90.8442 67.2767 92.2813 69.6662C93.0198 70.8929 93.209 77.4163 92.8402 78.3937C91.3675 82.293 91.3536 77.3964 91.3536 87.0252C92.6701 87.9048 96.5449 91.5357 98.0931 90.0137C99.2595 88.8666 96.8721 86.7187 95.8463 84.7846C96.7775 83.3977 98.0428 80.6628 98.0931 78.4344C99.3645 78.7305 102.451 81.3996 102.686 81.7061C104.039 83.473 102.639 85.7612 102.586 88.1455C108.279 88.1455 106.33 82.2671 106.33 79.5556C107.665 79.4092 107.381 80.1339 107.643 78.2976C107.987 75.8865 103.066 74.1888 102.245 73.5456C98.4845 70.3761 100.649 63.8242 101.098 58.6496C101.23 57.1311 101.355 55.6412 101.564 53.8854C102.419 46.6989 104.232 51.2908 102.705 40.592C102.389 38.3783 102.387 38.2207 101.666 36.3992C100.973 34.646 99.4678 24.045 99.0321 23.3403C98.3023 22.1586 95.9591 22.6217 91.7276 19.7951C92.0678 15.7192 94.0135 17.5468 92.8514 11.2052L92.4765 11.5783Z" fill="white"/>
<path fill-rule="evenodd" clip-rule="evenodd" d="M219.024 56.0247C218.769 54.933 218.37 54.2949 217.901 53.4101C216.079 54.6274 213.396 57.77 211.536 58.2661L211.529 44.4393C211.487 41.3252 211.03 40.7114 213.408 40.7114C223.498 40.7114 225.501 46.827 220.621 54.6308C220.101 55.4619 220.057 55.7494 219.024 56.0247ZM202.925 87.7723H212.284C210.895 81.8212 211.536 68.0897 211.536 60.5066C212.991 60.8945 213.322 62.0494 214.083 63.1947C219.494 72.5318 221.918 79.7148 226.512 89.2666C228.754 88.6692 231.757 85.382 234 84.7846C233.98 84.5509 225.042 66.7157 223.891 64.2414C226.706 60.0486 231.004 56.9986 231.004 47.4348C231.004 29.8455 219.095 32.1206 202.925 32.1206L203.299 80.6758C203.302 83.5267 202.925 85.4487 202.925 87.7723Z" fill="white"/>
<path fill-rule="evenodd" clip-rule="evenodd" d="M169.977 56.772V66.1099C174.55 65.0174 172.577 72.4653 172.603 76.9464L171.849 89.6399H198.057V80.3029C194.14 81.2128 186.159 81.0492 181.584 81.0492C180.721 81.0492 180.46 80.7895 180.46 79.9289V66.4831C180.46 63.9187 192.097 65.9255 194.313 66.1099V56.772C189.945 56.772 185.358 57.146 180.835 57.146C180.035 53.7186 180.46 47.4904 180.46 43.6993C180.46 41.1064 193.979 43.269 196.56 43.3262V33.9883H171.849C171.849 38.0962 175.469 58.049 169.977 56.772Z" fill="white"/>
<path fill-rule="evenodd" clip-rule="evenodd" d="M109.7 45.9405C109.7 49.1905 110.934 52.3903 112.417 54.4344C114.099 56.7511 120.076 62.6901 121.965 64.3307C133.151 74.0426 125.507 83.7008 113.941 79.8058C111.548 78.9998 110.485 78.3219 108.576 77.3142V87.7724C110.53 87.9343 127.475 95.1009 134.666 79.811C138.261 72.1691 135.155 62.4511 128.85 57.4627C126.738 55.7918 118.31 48.4954 118.31 45.5665C118.31 36.5983 130.024 43.4931 132.537 44.8203V35.1092C124.885 33.3301 117.979 29.3676 111.778 38.303C110.568 40.0474 109.7 43.1321 109.7 45.9405Z" fill="white"/>
<path fill-rule="evenodd" clip-rule="evenodd" d="M0 43.3262L10.591 42.6102C11.2314 42.6249 11.7773 42.9375 11.6688 44.4231C12.8152 83.1486 11.2323 75.5708 11.2323 89.6399H20.5918C19.3308 74.5232 19.8429 59.1944 19.8429 43.6993C19.8429 41.2926 29.3412 43.2708 31.8241 43.3262V33.9883H0V43.3262Z" fill="white"/>
<path fill-rule="evenodd" clip-rule="evenodd" d="M135.907 43.3262L146.531 42.6431C148.266 42.5886 147.937 43.3063 147.92 45.1607C147.79 60.1441 148.371 74.8808 147.139 89.6399H156.499C156.499 87.7777 156.154 86.4177 156.137 84.0247C156.121 81.8128 155.734 80.676 155.748 78.0641C155.761 75.3985 155.523 43.9833 155.94 43.1946C156.114 42.8639 155.344 42.579 156.874 42.579C158.316 42.579 158.059 42.7617 159.336 42.7955L167.731 43.3262V33.9883H135.907V43.3262Z" fill="white"/>
<path fill-rule="evenodd" clip-rule="evenodd" d="M26.2076 2.61454C26.7283 3.38938 28.4544 4.97715 28.4544 5.97622C28.4544 10.5508 28.9248 23.2746 28.0804 26.8917H33.3221L32.9472 19.7952C32.9481 17.3053 32.9472 14.8155 32.9472 12.3256C38.4917 19.2255 32.9472 12.3256 38.5178 19.3061C44.1795 12.3256 38.5178 19.3061 44.1795 12.3256C44.1795 17.9373 44.2628 21.4063 43.8046 26.8917H49.0462C49.0462 24.523 48.6722 23.7733 48.6722 21.2895V6.34936C48.6722 4.71743 50.729 4.51052 50.9181 2.24141C49.2589 1.79901 48.5846 0.521177 46.8003 0.373135C45.6253 2.58857 46.8003 0.373136 38.5429 11.794C30.3263 0 38.5429 11.794 30.3264 0C29.0932 0.823321 27.7767 2.19639 26.2076 2.61454Z" fill="white"/>
<path fill-rule="evenodd" clip-rule="evenodd" d="M58.0313 4.85489C62.137 2.55461 67.3344 6.95864 62.899 11.9522C61.0271 10.8311 62.899 11.9522 61.0271 10.8311C60.4083 11.6735 59.0163 12.5522 58.0313 13.0725V4.85489ZM53.1645 26.8915H58.0313V14.1928C59.0675 14.469 58.933 14.662 59.5014 15.3408C62.36 18.7553 64.5869 23.7627 66.6428 27.6386C68.0478 26.8967 69.8659 26.2431 70.7615 25.0241C69.4458 23.0641 65.7099 18.1051 65.1449 15.6871C67.8864 13.3522 71.3013 8.4079 68.0417 3.46018C65.5927 -0.258186 58.427 0.746941 53.1645 0.746941V26.8915Z" fill="white"/>
<path fill-rule="evenodd" clip-rule="evenodd" d="M83.1752 12.3256C83.5857 11.9135 83.2464 12.0061 84.2071 11.7568C90.8824 10.0271 90.76 7.68263 92.4844 7.03852C92.1347 9.30763 90.826 9.9552 88.9046 11.0261C87.4883 11.8157 85.1565 13.1108 83.1752 12.3256ZM92.8515 11.2053C93.8027 9.78812 94.9065 9.38295 95.0975 7.09652C93.3288 6.16325 93.1865 6.70607 91.6123 6.0914C89.3915 5.22479 90.1404 3.01628 87.116 4.73651C84.7182 6.54764 83.7124 5.37716 82.98 7.33287C82.4463 8.75615 83.0286 9.963 82.5443 11.3837C82.4341 11.7066 81.9933 12.2771 81.7468 12.8805C79.4627 18.4793 90.9171 13.1351 92.8515 11.2053Z" fill="#F9020A"/>
<path fill-rule="evenodd" clip-rule="evenodd" d="M83.1751 12.3255C85.1564 13.1108 87.4882 11.8156 88.9045 11.0261C90.8259 9.95514 92.1346 9.30756 92.4843 7.03845C90.7599 7.68256 90.8823 10.027 84.207 11.7567C83.2463 12.0061 83.5856 11.9134 83.1751 12.3255Z" fill="#F6E8E5"/>
</svg>
