<svg width="16" height="16" viewBox="0 0 16 16" fill="none" xmlns="http://www.w3.org/2000/svg">
<path fill-rule="evenodd" clip-rule="evenodd" d="M0.982041 2.43332C1.08404 2.36996 1.20441 2.33337 1.33332 2.33337H14.6667C14.7937 2.33337 14.9124 2.36889 15.0134 2.43053C15.001 2.423 14.9884 2.41589 14.9756 2.40922C15.0543 2.45043 15.1237 2.50687 15.1799 2.57462C15.1704 2.56317 15.1606 2.55212 15.1505 2.54146C15.2294 2.62462 15.287 2.72809 15.3148 2.8432C15.3053 2.80415 15.2923 2.76566 15.2755 2.72824C15.3126 2.81127 15.3333 2.90327 15.3333 3.0001V3.00988L15.3333 3.00754V13C15.3333 13.3682 15.0348 13.6667 14.6667 13.6667H1.33332C0.965133 13.6667 0.666656 13.3682 0.666656 13V3.00004C0.666656 2.76076 0.792714 2.55093 0.982041 2.43332ZM0.982041 2.43332C0.989303 2.42883 0.99664 2.42448 1.00405 2.42028C0.945633 2.45352 0.892734 2.49533 0.847059 2.544C0.887736 2.50053 0.933213 2.46357 0.982041 2.43332ZM1.99996 3.66677H3.33328L8 7.16681L12.6667 3.66677H14V4.3335L8.4 8.53347C8.16296 8.71125 7.83703 8.71125 7.6 8.53347L1.99996 4.33344V3.66677Z" fill="#FF972C"/>
</svg>
