<svg width="24" height="24" viewBox="0 0 24 24" fill="none" xmlns="http://www.w3.org/2000/svg">
<path d="M10.5195 10.5348C10.4283 10.3216 10.363 10.1352 10.3183 9.99176L11.307 8.01431C11.5962 7.43601 11.5813 6.75236 11.2676 6.1872L10.0693 4.02871C9.72386 3.40651 9.06816 3.02051 8.35643 3.02051H5.87184C3.99399 3.02051 2.53183 4.80004 3.16878 6.68781C4.00665 9.17093 5.64662 13.1818 8.24033 15.7756C10.8341 18.3693 14.8449 20.0093 17.3281 20.8471C19.2159 21.4842 20.9954 20.0219 20.9954 18.1441V15.6591C20.9954 14.9478 20.6099 14.2924 19.9882 13.9468L17.8237 12.7433C17.2583 12.429 16.5741 12.414 15.9954 12.7034L14.0174 13.6924C13.8747 13.6481 13.6893 13.5835 13.4772 13.4931C12.9534 13.2699 12.2914 12.8999 11.7037 12.3122C11.1158 11.7244 10.7443 11.0607 10.5195 10.5348Z" fill="#FF972C"/>
</svg>
